<?xml version="1.0" encoding="UTF-8" ?>
<!DOCTYPE svg PUBLIC "-//W3C//DTD SVG 1.1//EN" "http://www.w3.org/Graphics/SVG/1.1/DTD/svg11.dtd">
<svg width="64pt" height="64pt" viewBox="0 0 64 64" version="1.1" xmlns="http://www.w3.org/2000/svg">
<g id="#ffffccff">
<path fill="#c00000" opacity="1.00" d=" M 25.15 21.74 C 26.42 19.01 29.68 15.84 32.70 18.20 C 35.79 19.97 34.57 23.62 33.09 26.02 C 30.34 24.79 27.69 23.35 25.15 21.74 Z" />
<path fill="#ff80ff" opacity="1.00" d=" M 23.36 25.05 C 26.05 26.07 28.59 27.47 30.94 29.14 C 27.27 36.36 23.18 43.38 18.85 50.21 C 16.20 49.17 13.72 47.76 11.47 46.03 C 15.13 38.87 19.42 32.06 23.36 25.05 Z" />
<path fill="#ff80ff" opacity="1.00" d=" M 10.22 48.01 C 12.78 49.09 15.21 50.47 17.46 52.10 C 15.42 53.78 12.92 55.48 10.31 53.83 C 10.29 51.89 10.24 49.95 10.22 48.01 Z" />
</g>
<g id="#0b0b0bff">
<path fill="#0b0b0b" opacity="1.00" d=" M 7.23 12.98 C 6.88 7.13 12.17 1.96 17.98 2.25 C 27.63 2.18 37.29 2.09 46.94 2.31 C 52.53 2.26 57.29 7.40 57.09 12.94 C 57.18 25.64 57.19 38.35 57.08 51.05 C 57.32 56.63 52.72 61.86 47.05 61.90 C 38.03 62.17 28.99 62.06 19.96 61.92 C 20.41 61.00 20.86 60.09 21.31 59.17 C 29.85 58.46 38.43 59.30 46.97 58.79 C 50.96 58.71 54.21 54.98 53.88 51.03 C 53.91 38.34 53.93 25.65 53.87 12.97 C 54.22 8.67 50.25 5.00 46.03 5.32 C 35.85 5.49 25.60 4.80 15.47 5.68 C 8.90 7.65 10.17 15.71 10.15 21.01 C 9.73 27.12 11.92 34.33 7.38 39.36 C 7.04 30.57 7.26 21.77 7.23 12.98 Z" />
<path fill="#0b0b0b" opacity="1.00" d=" M 23.85 17.84 C 26.24 13.47 33.10 12.94 36.16 16.84 C 38.61 19.50 38.23 23.59 36.50 26.53 C 32.09 34.40 27.41 42.13 23.04 50.03 C 20.08 56.41 12.85 58.53 7.23 61.88 C 7.62 55.22 5.58 47.71 9.77 41.88 C 14.62 33.96 18.93 25.71 23.85 17.84 M 25.15 21.74 C 27.69 23.35 30.34 24.79 33.09 26.02 C 34.57 23.62 35.79 19.97 32.70 18.20 C 29.68 15.84 26.42 19.01 25.15 21.74 M 23.36 25.05 C 19.42 32.06 15.13 38.87 11.47 46.03 C 13.72 47.76 16.20 49.17 18.85 50.21 C 23.18 43.38 27.27 36.36 30.94 29.14 C 28.59 27.47 26.05 26.07 23.36 25.05 M 10.22 48.01 C 10.24 49.95 10.29 51.89 10.31 53.83 C 12.92 55.48 15.42 53.78 17.46 52.10 C 15.21 50.47 12.78 49.09 10.22 48.01 Z" />
</g>
</svg>
