<?xml version="1.0" encoding="UTF-8" ?>
<!DOCTYPE svg PUBLIC "-//W3C//DTD SVG 1.1//EN" "http://www.w3.org/Graphics/SVG/1.1/DTD/svg11.dtd">
<svg width="330pt" height="330pt" viewBox="0 0 330 330" version="1.1" xmlns="http://www.w3.org/2000/svg">
<g id="#ffffffff">
</g>
<g id="#020202ff">
<path fill="#020202" opacity="1.00" d=" M 92.80 62.74 C 98.66 50.06 112.12 41.64 126.03 41.43 C 152.03 41.32 178.03 41.39 204.03 41.40 C 218.03 41.31 231.79 49.45 237.88 62.16 C 241.59 68.86 241.63 76.66 242.08 84.10 C 256.15 84.90 270.72 82.80 284.27 87.75 C 296.25 91.85 307.93 101.64 308.80 115.07 C 308.72 160.40 308.83 205.74 308.74 251.07 C 308.84 260.09 305.02 269.23 297.71 274.71 C 286.06 284.05 270.46 285.96 256.00 285.53 C 193.32 285.53 130.64 285.52 67.96 285.54 C 59.16 285.67 50.24 284.36 42.12 280.84 C 30.97 276.18 20.91 265.84 21.07 253.08 C 20.93 210.72 21.07 168.36 21.01 126.00 C 21.11 118.70 20.64 110.92 24.32 104.32 C 29.47 94.56 39.88 88.92 50.21 86.21 C 62.85 82.82 76.05 85.07 88.94 84.12 C 89.29 76.88 89.39 69.34 92.80 62.74 M 105.18 84.09 C 145.36 84.44 185.60 84.50 225.77 84.05 C 228.45 70.03 216.54 55.74 201.98 57.45 C 176.33 57.62 150.66 57.26 125.00 57.63 C 111.84 58.00 103.07 71.71 105.18 84.09 M 60.42 100.62 C 50.68 101.73 37.35 106.25 37.04 117.96 C 36.98 162.66 36.95 207.37 37.06 252.08 C 37.69 264.55 52.65 268.76 63.01 269.33 C 128.67 269.55 194.34 269.36 259.99 269.42 C 269.89 269.50 280.71 268.25 288.43 261.42 C 291.76 258.66 292.82 254.21 292.75 250.06 C 292.73 206.02 292.74 161.98 292.75 117.94 C 293.07 114.02 291.05 110.35 288.02 107.98 C 280.00 101.30 269.05 100.20 259.00 100.30 C 192.81 100.56 126.59 99.93 60.42 100.62 Z" />
<path fill="#020202" opacity="1.00" d=" M 160.37 116.31 C 192.97 113.09 225.23 136.77 232.37 168.65 C 241.16 201.64 221.06 238.92 188.66 249.67 C 157.44 261.66 119.25 246.53 104.42 216.64 C 94.25 197.42 94.10 173.35 103.99 153.99 C 114.51 132.77 136.66 117.75 160.37 116.31 M 157.43 132.70 C 142.72 134.92 129.22 143.68 121.18 156.18 C 111.07 171.54 109.89 192.30 118.35 208.65 C 126.89 226.00 145.64 237.69 164.99 237.68 C 180.53 237.97 195.90 230.77 205.82 218.84 C 218.69 204.09 221.85 181.88 213.98 164.01 C 205.04 142.31 180.56 128.81 157.43 132.70 Z" />
</g>
</svg>
