<?xml version="1.0" encoding="UTF-8" ?>
<!DOCTYPE svg PUBLIC "-//W3C//DTD SVG 1.1//EN" "http://www.w3.org/Graphics/SVG/1.1/DTD/svg11.dtd">
<svg width="280pt" height="280pt" viewBox="0 0 280 280" version="1.1" xmlns="http://www.w3.org/2000/svg">
<g id="#92d13dff">
<path fill="#707070" opacity="1.00" d=" M 92.49 27.64 C 106.55 25.84 119.06 39.23 118.31 52.98 C 117.88 111.00 118.86 169.04 117.83 227.05 C 118.22 240.96 106.78 255.53 92.00 254.41 C 77.69 258.35 62.49 246.75 62.08 232.05 C 62.43 173.29 61.73 114.51 62.38 55.75 C 62.15 46.05 67.40 36.70 75.33 31.27 C 80.39 27.87 86.73 28.53 92.49 27.64 Z" />
<path fill="#707070" opacity="1.00" d=" M 193.49 27.69 C 206.93 25.65 219.66 37.66 219.87 50.95 C 219.54 109.44 220.16 167.94 219.58 226.43 C 219.86 236.54 214.34 246.41 205.87 251.81 C 200.04 254.74 193.28 254.15 186.98 255.04 C 173.91 255.15 163.21 242.77 163.64 230.02 C 163.98 173.01 163.30 115.99 163.95 58.98 C 163.22 48.18 167.95 37.15 177.12 31.13 C 181.97 27.97 188.00 28.53 193.49 27.69 Z" />
</g>
</svg>
