<?xml version="1.0" encoding="UTF-8" ?>
<!DOCTYPE svg PUBLIC "-//W3C//DTD SVG 1.1//EN" "http://www.w3.org/Graphics/SVG/1.1/DTD/svg11.dtd">
<svg width="128pt" height="128pt" viewBox="0 0 128 128" version="1.1" xmlns="http://www.w3.org/2000/svg">
<g id="#393432ff">
<path fill="#707070" opacity="1.00" d=" M 58.44 0.00 L 69.54 0.00 C 78.16 3.58 84.21 13.08 81.43 22.45 C 80.47 29.18 71.61 31.75 72.13 38.90 C 72.34 60.61 72.09 82.33 72.30 104.04 C 83.35 100.89 96.01 97.49 101.56 86.28 C 99.98 85.35 98.40 84.43 96.82 83.51 C 103.52 78.23 110.34 73.12 117.33 68.25 C 118.77 80.40 118.00 93.88 109.43 103.45 C 98.11 116.51 80.84 121.34 65.53 128.00 L 62.43 128.00 C 47.12 121.37 30.03 116.30 18.59 103.42 C 9.71 93.81 9.54 80.13 10.42 67.86 C 16.99 72.93 23.51 78.05 29.85 83.39 C 28.17 84.35 26.50 85.31 24.82 86.27 C 31.76 96.65 44.14 100.72 55.73 103.33 C 55.87 81.85 55.66 60.37 55.86 38.90 C 56.38 31.75 47.53 29.18 46.57 22.44 C 43.78 13.08 49.84 3.60 58.44 0.00 M 61.33 12.11 C 54.16 15.14 59.30 26.75 66.39 23.43 C 74.02 20.62 68.66 8.25 61.33 12.11 Z" />
</g>
</svg>
