<?xml version="1.0" encoding="UTF-8" ?>
<!DOCTYPE svg PUBLIC "-//W3C//DTD SVG 1.1//EN" "http://www.w3.org/Graphics/SVG/1.1/DTD/svg11.dtd">
<svg width="280pt" height="280pt" viewBox="0 0 280 280" version="1.1" xmlns="http://www.w3.org/2000/svg">
<g id="#7bb134ff">
<path fill="#a0a0a0" opacity="1.00" d=" M 108.38 10.33 C 116.28 8.73 124.85 11.85 130.34 17.66 C 158.92 50.45 187.11 83.58 215.42 116.60 C 219.57 121.53 224.49 126.16 226.65 132.41 C 229.65 140.11 227.52 149.18 222.65 155.63 C 192.53 189.20 162.88 223.20 133.05 257.03 C 127.24 265.23 116.20 268.80 106.57 266.48 C 98.79 264.17 93.08 258.02 87.83 252.17 C 80.38 243.65 79.90 229.86 87.01 221.00 C 103.80 200.49 120.82 180.15 137.84 159.83 C 143.36 154.36 147.92 147.05 147.13 138.96 C 147.25 130.54 141.30 123.86 136.25 117.75 C 119.45 97.18 103.08 76.27 86.38 55.61 C 80.58 47.67 80.13 35.76 85.49 27.50 C 91.76 20.29 98.34 12.00 108.38 10.33 Z" />
</g>
</svg>
