<?xml version="1.0" encoding="UTF-8" ?>
<!DOCTYPE svg PUBLIC "-//W3C//DTD SVG 1.1//EN" "http://www.w3.org/Graphics/SVG/1.1/DTD/svg11.dtd">
<svg width="900" height="700" viewBox="0 0 900 700" version="1.1" xmlns="http://www.w3.org/2000/svg">
 <g fill="#fff" stroke="#fff">
  <path d="M 10.39 2.38 C 11.57 2.12 12.76 1.99 13.98 2.00 C 305.66 2.02 597.34 1.99 889.03 2.02 C 892.92 2.08 898.51 4.26 897.99 8.97 C 897.99 236.66 897.99 464.35 897.99 692.04 C 898.44 695.24 895.24 698.45 892.03 697.99 C 597.68 697.99 303.32 697.99 8.97 697.99 C 4.26 698.51 2.08 692.92 2.02 689.03 C 2.00 463.35 2.00 237.66 2.02 11.97 C 1.84 7.10 5.24 2.39 10.39 2.38 Z" />
 </g>
 <g stroke="#eee" stroke-width="2">
  <line x1="0" y1="175" x2="900" y2="175" />
  <line x1="0" y1="350" x2="900" y2="350" />
  <line x1="0" y1="525" x2="900" y2="525" />
  <line x1="180" y1="0" x2="180" y2="700" />
  <line x1="360" y1="0" x2="360" y2="700" />
  <line x1="540" y1="0" x2="540" y2="700" />
  <line x1="720" y1="0" x2="720" y2="700" />
 </g>
</svg>
